<?xml version="1.0" encoding="utf-8"?>
<!-- Generator: Adobe Illustrator 28.0.0, SVG Export Plug-In . SVG Version: 6.00 Build 0)  -->
<svg version="1.1" id="Layer_1" xmlns="http://www.w3.org/2000/svg" xmlns:xlink="http://www.w3.org/1999/xlink" x="0px" y="0px"
	 viewBox="0 0 424 424" style="enable-background:new 0 0 424 424;" xml:space="preserve">
<style type="text/css">
	.st0{fill-rule:evenodd;clip-rule:evenodd;fill:url(#SVGID_1_);}
	.st1{fill-rule:evenodd;clip-rule:evenodd;}
</style>
<linearGradient id="SVGID_1_" gradientUnits="userSpaceOnUse" x1="167.4174" y1="269.0235" x2="444.2724" y2="275.8175" gradientTransform="matrix(1 0 0 -1 0 426)">
	<stop  offset="0" style="stop-color:#23EE88"/>
	<stop  offset="0.9888" style="stop-color:#9FE871"/>
</linearGradient>
<path class="st0" d="M181.9,97.8c-0.5-24.2-8.8-31.8-34.4-31.8h-8.9c-5.9,0-6.3,0.9-4.2,5.9c1.7,4.1,1.8,7.2,1.9,12.1l0,86.7
	c0.2,36,5.1,44.1,38,62.6c16.9,9.5,26.9,14.3,37.3,14.3c10.5,0,20.4-4.8,37.3-14.3c33.9-19,38-27.1,38-65.7s-4.4-46.1-36.9-65
	c-15.6-9.1-26.6-13.9-37.2-14.4l-1.3,0l-1.3,0C201.8,88.6,193,91.8,181.9,97.8z M216.2,119.2c-26.9,0-48.8,21.8-48.8,48.7
	s21.8,48.7,48.8,48.7c12.8,0,25.3-6.4,34-14.5c0.4-0.4,0.9-1.6,0.2-2.3c-4.2-4.2-19.8-18.6-28-26.1c-2.9-2.7-4.8-4.5-5-4.6
	c-0.8-0.8-0.8-1.6,0-2.4c4.5-4.7,21.4-20.7,28.9-27.8c2.1-2,3.5-3.3,3.7-3.5c0.9-0.9,0.4-1.8,0-2.2
	C241.4,125.3,228.8,119.2,216.2,119.2z"/>
<path class="st1" d="M208.4,153.5c0,4.3-3.5,7.8-7.8,7.8c-4.3,0-7.8-3.5-7.8-7.8c0-4.3,3.5-7.8,7.8-7.8
	C204.8,145.7,208.4,149.2,208.4,153.5z"/>
<path class="st1" d="M60.4,327.6c-1.2,1.2-3.2,1.9-5.8,1.9h-9.8v-15.1H55c2.5,0,4.4,0.8,5.5,2c1.1,1.2,1.6,3.4,1.6,5.7
	C62.1,324.1,61.6,326.3,60.4,327.6z M44.7,290.5h6.9c3.4,0,5.1,0.5,6.5,1.7c1.2,1,1.8,3,1.8,5.4c0,2.1-0.6,3.9-1.8,4.9
	c-1.6,1.4-3.1,1.8-6.3,1.8h-7.2V290.5z M67.3,309.1c2.5-1,4.6-2.9,5.9-4.9c1.6-2.5,2.4-5.2,2.4-8.2c0-6-2-10.4-6.1-13.4
	c-4.2-3.1-8.7-4.3-17.4-4.7c-8.4-0.4-22.1,1.5-22.1,1.5v62.2c0,0,16.1,0.8,26,0.1c8.5-0.6,12.4-1.9,15.8-4.7
	c3.8-3.2,5.8-8.4,5.8-14.7c0-3.4-0.8-6-2.5-8.5C73.7,311.6,70.6,309.6,67.3,309.1z M239.8,314.7l5.6-17.4l5.7,17.4L239.8,314.7z
	 M238.3,279.3l-22.9,61l15.7,0.1l4.7-13.2l18.6-0.1l4.9,13.2h15.9L253,279.3H238.3z M364.8,315.3l-0.1,11.7H390v13.3h-40.2v-37.4
	v-23.5h39.5v13.3h-24.7l0.1,11h22.4v11.7L364.8,315.3z M121.2,327.9c-4.7,0.9-11.5,1.9-16.6-0.9c-4.6-2.7-6.7-7.9-7.1-11.7
	c-0.4-3.2-0.4-8.2,0-11c0.6-4.3,2.5-9.3,7.1-12c5-2.9,11.9-1.9,16.6-0.9c3.1,0.6,9.2,2.5,9.2,2.5l0.1-11.9c0,0-4.9-2.6-13.4-3.6
	c-8-1-18.5-0.1-25.5,6c-7,6.1-8.6,13.7-9.2,19.4c-0.4,3.4-0.4,8.8,0,12c0.6,5.2,2.3,13.3,9.2,19.4c7,6.1,17.4,7,25.5,6
	c8.5-1,14.1-4,14.1-4l-0.1-12.3C131.1,324.9,124.3,327.3,121.2,327.9z M149.6,341.5c4,0,7.3-3.3,7.3-7.3c0-4.1-3.3-7.3-7.3-7.3
	c-4,0-7.3,3.3-7.3,7.3C142.3,338.2,145.6,341.5,149.6,341.5z M342.4,340.4l-0.9-61.1h-17.5l-13.4,35.4l-14.2-35.4h-17.2
	c-0.1,0-0.1,0.1-0.1,0.1v61c0,0,0,0,0,0H294l0-37.3l13.7,31.8l6.1,0l13.7-32.9v38.5H342.4z M200.9,310h11.7v13.6l0,0v12.3
	c-2.7,1.8-6.5,3.7-13.2,4.9c-6.1,1.1-17.8,1.6-25.6-3.9c-8.4-5.9-10.6-14.9-11-20.5c-0.3-3.9-0.3-8,0-12.3
	c0.4-5.3,2.3-13.5,9.2-19.7c7-6.2,17.4-7.1,25.5-6.1c8.5,1,13.4,3.7,13.4,3.7l-0.1,12.1c0,0-6.1-1.9-9.2-2.5c-4.7-0.9-11.5-2-16.6,1
	c-4.6,2.7-6.8,8.4-7.1,12c-0.3,3.7-0.3,7.8-0.1,10.9c0.4,5,2.7,8.9,6.1,11.4c3.5,2.4,10.3,2.6,15.4,0.6c0,0-0.1-9.8-0.1-11.9
	c0-1-0.2-1.9-0.4-2.6c-0.1-0.4-0.2-0.8-0.3-1.2C198.4,310.4,198.8,310,200.9,310z"/>
</svg>
