<svg width="1001" height="300" viewBox="0 0 1001 300" fill="none" xmlns="http://www.w3.org/2000/svg">
<path d="M293.324 0H6.66558C4.89773 0 3.20221 0.701793 1.95266 1.95268C0.701773 3.20223 0 4.89774 0 6.66693V293.325C0 295.093 0.701773 296.788 1.95266 298.038C3.20221 299.289 4.89773 299.991 6.66558 299.991H293.324C295.093 299.991 296.788 299.289 298.038 298.038C299.289 296.788 299.991 295.093 299.991 293.325V6.66693C299.991 4.89774 299.289 3.20223 298.038 1.95268C296.788 0.701793 295.093 0 293.324 0ZM199.993 193.328C199.993 195.096 199.292 196.791 198.041 198.042C196.791 199.292 195.096 199.995 193.328 199.995H106.663C104.895 199.995 103.2 199.292 101.949 198.042C100.699 196.791 99.9973 195.096 99.9973 193.328V106.663C99.9973 104.895 100.699 103.2 101.949 101.95C103.2 100.699 104.895 99.9973 106.663 99.9973H193.328C195.096 99.9973 196.791 100.699 198.041 101.95C199.292 103.2 199.993 104.895 199.993 106.663V193.328Z" fill="white"/>
<path d="M893.472 100.008H806.808C803.127 100.008 800.142 102.992 800.142 106.673V193.338C800.142 197.02 803.127 200.005 806.808 200.005H893.472C897.154 200.005 900.139 197.02 900.139 193.338V106.673C900.139 102.992 897.154 100.008 893.472 100.008Z" fill="white"/>
<path d="M793.435 0H706.771C703.09 0 700.104 2.98391 700.104 6.66693V93.3304C700.104 97.0121 703.09 99.9973 706.771 99.9973H793.435C797.118 99.9973 800.102 97.0121 800.102 93.3304V6.66693C800.102 2.98391 797.118 0 793.435 0Z" fill="white"/>
<path d="M993.43 0H906.765C903.083 0 900.098 2.98391 900.098 6.66693V93.3304C900.098 97.0121 903.083 99.9973 906.765 99.9973H993.43C997.112 99.9973 1000.1 97.0121 1000.1 93.3304V6.66693C1000.1 2.98391 997.112 0 993.43 0Z" fill="white"/>
<path d="M793.435 199.992H706.771C703.09 199.992 700.104 202.976 700.104 206.658V293.323C700.104 297.004 703.09 299.99 706.771 299.99H793.435C797.118 299.99 800.102 297.004 800.102 293.323V206.658C800.102 202.976 797.118 199.992 793.435 199.992Z" fill="white"/>
<path d="M993.43 199.992H906.765C903.083 199.992 900.098 202.976 900.098 206.658V293.323C900.098 297.004 903.083 299.99 906.765 299.99H993.43C997.112 299.99 1000.1 297.004 1000.1 293.323V206.658C1000.1 202.976 997.112 199.992 993.43 199.992Z" fill="white"/>
<path d="M643.314 0H556.651C552.969 0 549.984 2.98391 549.984 6.66693V93.3304C549.984 97.0121 552.969 99.9973 556.651 99.9973H643.314C646.996 99.9973 649.981 97.0121 649.981 93.3304V6.66693C649.981 2.98391 646.996 0 643.314 0Z" fill="white"/>
<path d="M643.314 199.992H556.651C552.969 199.992 549.984 202.976 549.984 206.658V293.323C549.984 297.004 552.969 299.99 556.651 299.99H643.314C646.996 299.99 649.981 297.004 649.981 293.323V206.658C649.981 202.976 646.996 199.992 643.314 199.992Z" fill="white"/>
<path d="M549.983 106.588C549.983 104.82 549.28 103.125 548.03 101.875C546.78 100.624 545.084 99.9223 543.316 99.9223H449.986V6.66693C449.986 4.89774 449.283 3.20223 448.033 1.95268C446.782 0.701793 445.087 0 443.319 0H356.655C354.886 0 353.191 0.701793 351.941 1.95268C350.69 3.20223 349.989 4.89774 349.989 6.66693V293.175C349.989 294.943 350.69 296.638 351.941 297.888C353.191 299.139 354.886 299.841 356.655 299.841H443.319C445.087 299.841 446.782 299.139 448.033 297.888C449.283 296.638 449.986 294.943 449.986 293.175V199.92H543.316C545.084 199.92 546.78 199.216 548.03 197.967C549.28 196.716 549.983 195.021 549.983 193.253V106.588Z" fill="white"/>
</svg>
